<?xml version="1.0" encoding="UTF-8" standalone="no"?>
<!-- Created with Inkscape (http://www.inkscape.org/) -->

<svg
   width="25"
   height="25"
   viewBox="0 0 6.6145832 6.6145833"
   version="1.1"
   id="svg1"
   inkscape:version="1.3.2 (091e20ef0f, 2023-11-25)"
   sodipodi:docname="favicon.svg"
   xmlns:inkscape="http://www.inkscape.org/namespaces/inkscape"
   xmlns:sodipodi="http://sodipodi.sourceforge.net/DTD/sodipodi-0.dtd"
   xmlns="http://www.w3.org/2000/svg"
   xmlns:svg="http://www.w3.org/2000/svg">
  <sodipodi:namedview
     id="namedview1"
     pagecolor="#ffffff"
     bordercolor="#000000"
     borderopacity="0.25"
     inkscape:showpageshadow="2"
     inkscape:pageopacity="0.0"
     inkscape:pagecheckerboard="0"
     inkscape:deskcolor="#d1d1d1"
     inkscape:document-units="mm"
     inkscape:zoom="8.919783"
     inkscape:cx="-0.78477245"
     inkscape:cy="5.2691865"
     inkscape:window-width="1920"
     inkscape:window-height="1041"
     inkscape:window-x="0"
     inkscape:window-y="0"
     inkscape:window-maximized="0"
     inkscape:current-layer="layer1" />
  <defs
     id="defs1" />
  <g
     inkscape:label="Layer 1"
     inkscape:groupmode="layer"
     id="layer1">
    <path
       d="m 1.842522,4.0992479 c 0.079375,0 0.1651,-0.049213 0.2032,-0.219075 0.066675,-0.2905125 0.1857375,-1.0795 0.2397125,-1.5875 l 0.049212,0.01905 c -0.00476,0.3556 0.0127,0.8810625 0.0381,1.0525125 0.020637,0.1476375 0.079375,0.2143125 0.17145,0.2143125 0.068262,0 0.14605,-0.039687 0.200025,-0.1762125 0.06985,-0.1778 0.244475,-0.78105 0.3444875,-1.1668125 l 0.049212,0.01905 c -0.065088,0.460375 -0.111125,1.1557 -0.111125,1.5033625 0,0.2047875 0.055562,0.33655 0.1889125,0.33655 0.098425,0 0.1778,-0.073025 0.1778,-0.187325 0,-0.077787 -0.041275,-0.1539875 -0.111125,-0.18415 0.00794,-0.4365625 0.061913,-1.2525375 0.117475,-1.6684625 0.0254,-0.19685 -0.011112,-0.377825 -0.1889125,-0.377825 -0.123825,0 -0.200025,0.087313 -0.24765,0.2651125 -0.08255,0.301625 -0.2651125,0.911225 -0.352425,1.177925 L 2.5648345,3.0991229 C 2.537847,2.8133729 2.5235595,2.2831479 2.5172095,2.0021604 2.5140345,1.8211854 2.436247,1.7402229 2.312422,1.7402229 c -0.1190625,0 -0.200025,0.0762 -0.2286,0.29845 -0.049212,0.3952875 -0.1603375,1.1811 -0.254,1.6652875 -0.0889,0.022225 -0.149225,0.1063625 -0.149225,0.2047875 0,0.096838 0.055563,0.1905 0.161925,0.1905 z"
       id="text1"
       style="font-size:3.175px;font-family:'Monaspace Radon';-inkscape-font-specification:'Monaspace Radon';white-space:pre;stroke-width:0.264583"
       transform="matrix(2.3934837,0,0,1.9239028,-2.7279021,-2.4454935)"
       aria-label="M" />
    <path
       d="m 1.842522,4.0992479 c 0.079375,0 0.1651,-0.049213 0.2032,-0.219075 0.066675,-0.2905125 0.1857375,-1.0795 0.2397125,-1.5875 l 0.049212,0.01905 c -0.00476,0.3556 0.0127,0.8810625 0.0381,1.0525125 0.020637,0.1476375 0.079375,0.2143125 0.17145,0.2143125 0.068262,0 0.14605,-0.039687 0.200025,-0.1762125 0.06985,-0.1778 0.244475,-0.78105 0.3444875,-1.1668125 l 0.049212,0.01905 c -0.065088,0.460375 -0.111125,1.1557 -0.111125,1.5033625 0,0.2047875 0.055562,0.33655 0.1889125,0.33655 0.098425,0 0.1778,-0.073025 0.1778,-0.187325 0,-0.077787 -0.041275,-0.1539875 -0.111125,-0.18415 0.00794,-0.4365625 0.061913,-1.2525375 0.117475,-1.6684625 0.0254,-0.19685 -0.011112,-0.377825 -0.1889125,-0.377825 -0.123825,0 -0.200025,0.087313 -0.24765,0.2651125 -0.08255,0.301625 -0.2651125,0.911225 -0.352425,1.177925 L 2.5648345,3.0991229 C 2.537847,2.8133729 2.5235595,2.2831479 2.5172095,2.0021604 2.5140345,1.8211854 2.436247,1.7402229 2.312422,1.7402229 c -0.1190625,0 -0.200025,0.0762 -0.2286,0.29845 -0.049212,0.3952875 -0.1603375,1.1811 -0.254,1.6652875 -0.0889,0.022225 -0.149225,0.1063625 -0.149225,0.2047875 0,0.096838 0.055563,0.1905 0.161925,0.1905 z"
       id="text1-3"
       style="font-size:3.175px;font-family:'Monaspace Radon';-inkscape-font-specification:'Monaspace Radon';white-space:pre;fill:#9715c4;stroke-width:0.264583"
       transform="matrix(2.3934837,0,0,1.9239028,-3.128877,-2.1312613)"
       aria-label="M" />
  </g>
</svg>
